<svg xmlns="http://www.w3.org/2000/svg" width="264.125" height="80.22" viewBox="0 0 264.125 80.22">
  <g id="Group_1377" data-name="Group 1377" transform="translate(-23.786 -16.284)">
    <g id="Group_15" data-name="Group 15" transform="translate(108.55 40.38)">
      <path id="Path_84" data-name="Path 84" d="M75.613,58.527a1.808,1.808,0,0,1-.535-1.37V33.084a5.332,5.332,0,0,1,.664-.193,4.167,4.167,0,0,1,.963-.107q1.886,0,1.884,1.586V56.041h12.3a1.925,1.925,0,0,1,.469,1.415,1.657,1.657,0,0,1-.383,1.157,1.321,1.321,0,0,1-1.028.428H76.964A1.866,1.866,0,0,1,75.613,58.527Z" transform="translate(-75.078 -29.613)" fill="#6d6f72"/>
      <path id="Path_85" data-name="Path 85" d="M87.183,36.867a5.5,5.5,0,0,1,.663-.193,4.179,4.179,0,0,1,.963-.106q1.8,0,1.8,1.585V49.161a4.818,4.818,0,0,0,1.458,3.963A6.23,6.23,0,0,0,96.092,54.3a10.129,10.129,0,0,0,2.913-.364,9.93,9.93,0,0,0,1.884-.749V36.867a5.543,5.543,0,0,1,.664-.193,3.972,3.972,0,0,1,.92-.106q1.839,0,1.841,1.585V53.059a3.62,3.62,0,0,1-.235,1.434,2.568,2.568,0,0,1-1.135,1.049,13.371,13.371,0,0,1-2.718,1.071,14.8,14.8,0,0,1-4.178.514q-4.283,0-6.576-1.884t-2.29-5.911Z" transform="translate(-67.179 -27.143)" fill="#6d6f72"/>
      <path id="Path_86" data-name="Path 86" d="M103.495,60.634q-1.926,0-1.927-1.585V40.632a3.838,3.838,0,0,1,.643-.172,4.637,4.637,0,0,1,.9-.084q1.884,0,1.886,1.583v18.42a4.007,4.007,0,0,1-.621.172A4.35,4.35,0,0,1,103.495,60.634Zm3.256-29.769a2.447,2.447,0,0,1,1.52.535,1.425,1.425,0,0,1,.578,1.092,1.63,1.63,0,0,1-.256.963,6.527,6.527,0,0,1-.856.92l-3.9,3.812a2,2,0,0,1-1.372-.45,1.32,1.32,0,0,1-.514-1.006,1.094,1.094,0,0,1,.213-.643c.144-.2.288-.385.43-.557Z" transform="translate(-57.791 -30.865)" fill="#6d6f72"/>
      <path id="Path_87" data-name="Path 87" d="M122.138,51.437a5.092,5.092,0,0,1-2.013,4.283,9.44,9.44,0,0,1-5.825,1.542,15.106,15.106,0,0,1-3-.279,10.435,10.435,0,0,1-2.333-.729,4.713,4.713,0,0,1-1.5-1.028,1.732,1.732,0,0,1-.535-1.177,1.9,1.9,0,0,1,.279-.985,2.393,2.393,0,0,1,.835-.815,13.415,13.415,0,0,0,2.7,1.52,8.77,8.77,0,0,0,3.513.664q4.452,0,4.455-3,0-2.442-2.958-3.17l-3.553-.944a7.7,7.7,0,0,1-3.814-1.991,4.775,4.775,0,0,1-1.2-3.363,5.3,5.3,0,0,1,.45-2.14,4.793,4.793,0,0,1,1.393-1.8,7.087,7.087,0,0,1,2.333-1.221,10.705,10.705,0,0,1,3.275-.448,11.373,11.373,0,0,1,4.842.876q1.842.88,1.843,2.036a1.761,1.761,0,0,1-.279.983,1.735,1.735,0,0,1-.75.645,13.766,13.766,0,0,0-2.185-1.114,8.512,8.512,0,0,0-3.341-.6,5.618,5.618,0,0,0-3.061.727,2.308,2.308,0,0,0-1.137,2.056,2.359,2.359,0,0,0,.643,1.672,4.175,4.175,0,0,0,2.143,1.028l2.955.727a9.355,9.355,0,0,1,4.368,2.163A5.2,5.2,0,0,1,122.138,51.437Z" transform="translate(-54.29 -27.278)" fill="#6d6f72"/>
      <path id="Path_88" data-name="Path 88" d="M120.168,58.527a1.808,1.808,0,0,1-.535-1.37V33.084a5.332,5.332,0,0,1,.664-.193,4.167,4.167,0,0,1,.963-.107q1.886,0,1.884,1.586V56.041h12.3a1.925,1.925,0,0,1,.469,1.415,1.665,1.665,0,0,1-.383,1.157,1.321,1.321,0,0,1-1.028.428H121.519A1.866,1.866,0,0,1,120.168,58.527Z" transform="translate(-46.003 -29.613)" fill="#6d6f72"/>
      <path id="Path_89" data-name="Path 89" d="M150.813,46.812a12.881,12.881,0,0,1-.686,4.326,9.475,9.475,0,0,1-1.95,3.3,8.373,8.373,0,0,1-3.062,2.1,11.512,11.512,0,0,1-8.053,0,8.589,8.589,0,0,1-3.082-2.1,9.32,9.32,0,0,1-1.971-3.3,12.881,12.881,0,0,1-.686-4.326,12.465,12.465,0,0,1,.707-4.326,9.577,9.577,0,0,1,1.991-3.3,8.606,8.606,0,0,1,3.084-2.1,11.275,11.275,0,0,1,7.967,0,8.389,8.389,0,0,1,3.064,2.1,9.736,9.736,0,0,1,1.968,3.3A12.466,12.466,0,0,1,150.813,46.812Zm-9.724-7.625a5.641,5.641,0,0,0-4.584,2.013,8.544,8.544,0,0,0-1.669,5.612,8.609,8.609,0,0,0,1.648,5.632,5.65,5.65,0,0,0,4.606,1.991,5.561,5.561,0,0,0,4.583-2.013,8.7,8.7,0,0,0,1.629-5.61,8.624,8.624,0,0,0-1.649-5.612A5.578,5.578,0,0,0,141.09,39.187Z" transform="translate(-38.374 -27.278)" fill="#6d6f72"/>
      <path id="Path_90" data-name="Path 90" d="M154.77,57.263a11.215,11.215,0,0,1-2.828-.344,9.422,9.422,0,0,1-2.185-.813v8.309a5.236,5.236,0,0,1-.641.193,3.925,3.925,0,0,1-.944.107q-1.842,0-1.843-1.585V40.514a2.707,2.707,0,0,1,.3-1.37,3.4,3.4,0,0,1,1.243-1.071,16.318,16.318,0,0,1,2.763-1.178,11.594,11.594,0,0,1,3.66-.534,12.849,12.849,0,0,1,3.963.6,8.4,8.4,0,0,1,3.213,1.862,8.9,8.9,0,0,1,2.142,3.236,12.625,12.625,0,0,1,.792,4.71,13.71,13.71,0,0,1-.706,4.627,8.863,8.863,0,0,1-1.991,3.275,8.074,8.074,0,0,1-3.064,1.95A11.33,11.33,0,0,1,154.77,57.263Zm-.473-2.828a6.509,6.509,0,0,0,4.819-1.821q1.822-1.819,1.821-5.847a10.361,10.361,0,0,0-.535-3.555,6.257,6.257,0,0,0-1.456-2.355,5.33,5.33,0,0,0-2.12-1.286,8.24,8.24,0,0,0-2.528-.385,7.787,7.787,0,0,0-2.613.385,13.588,13.588,0,0,0-1.927.858V53.065a7.157,7.157,0,0,0,1.927.985A8.02,8.02,0,0,0,154.3,54.435Z" transform="translate(-28.581 -27.278)" fill="#6d6f72"/>
      <path id="Path_91" data-name="Path 91" d="M163.364,48.825q1.155,5.612,7.365,5.61a8.439,8.439,0,0,0,3.256-.6A9.4,9.4,0,0,0,176.3,52.55a1.825,1.825,0,0,1,1.028,1.629,1.659,1.659,0,0,1-.535,1.155,4.785,4.785,0,0,1-1.456.985,9.766,9.766,0,0,1-2.142.686,12.756,12.756,0,0,1-2.636.258,11.054,11.054,0,0,1-7.858-2.7q-2.893-2.7-2.892-7.881a12.458,12.458,0,0,1,.706-4.348,9.349,9.349,0,0,1,1.971-3.234,8.491,8.491,0,0,1,3.019-2.034,10.115,10.115,0,0,1,3.812-.706,9.6,9.6,0,0,1,3.555.641,8.175,8.175,0,0,1,2.806,1.819,8.513,8.513,0,0,1,1.843,2.785,9.2,9.2,0,0,1,.664,3.535,1.8,1.8,0,0,1-.43,1.349,1.993,1.993,0,0,1-1.2.492Zm5.91-9.681a5.678,5.678,0,0,0-4.325,1.821,7.6,7.6,0,0,0-1.8,5.2l11.78-1.626a6.292,6.292,0,0,0-1.648-3.877A5.241,5.241,0,0,0,169.274,39.144Z" transform="translate(-19.786 -27.278)" fill="#6d6f72"/>
      <path id="Path_92" data-name="Path 92" d="M173.156,54.988a2.205,2.205,0,0,1,.215-.965,4.391,4.391,0,0,1,.559-.878l10.879-13.62H173.8a3.185,3.185,0,0,1-.258-.58,2.48,2.48,0,0,1-.129-.835c0-.94.428-1.413,1.286-1.413h13.7a1.907,1.907,0,0,1,.729,1.542,2.814,2.814,0,0,1-.813,1.8L177.441,53.7h11.608a3.711,3.711,0,0,1,.258.559,2.336,2.336,0,0,1,.127.811q0,1.415-1.329,1.415H173.842A1.832,1.832,0,0,1,173.156,54.988Z" transform="translate(-11.075 -27.059)" fill="#6d6f72"/>
    </g>
    <g id="Group_16" data-name="Group 16" transform="translate(23.786 16.284)">
      <path id="Rectangle_65" data-name="Rectangle 65" d="M0,0H38.237a1.436,1.436,0,0,1,1.436,1.436v52.2a0,0,0,0,1,0,0H0a0,0,0,0,1,0,0V0A0,0,0,0,1,0,0Z" fill="#de0055"/>
      <path id="Rectangle_66" data-name="Rectangle 66" d="M0,0H39.679a0,0,0,0,1,0,0V26.461a0,0,0,0,1,0,0H1.436A1.436,1.436,0,0,1,0,25.026V0A0,0,0,0,1,0,0Z" transform="translate(79.351 80.096) rotate(180)" fill="#1694d5"/>
    </g>
    <g id="Group_17" data-name="Group 17" transform="translate(203.191 82.8)">
      <path id="Path_93" data-name="Path 93" d="M143.247,63.156a8.726,8.726,0,0,1-.483,3.052,5.7,5.7,0,0,1-1.37,2.152,5.581,5.581,0,0,1-2.153,1.276,9,9,0,0,1-2.826.416q-.687,0-1.542-.053a6.989,6.989,0,0,1-1.628-.291c-.6-.185-.9-.512-.9-.985V57.718a.737.737,0,0,1,.17-.526,1.167,1.167,0,0,1,.535-.289,6.383,6.383,0,0,1,1.5-.278c.557-.045,1.114-.064,1.671-.064a9.255,9.255,0,0,1,2.859.416A6.053,6.053,0,0,1,141.3,58.22a5.609,5.609,0,0,1,1.436,2.056A7.453,7.453,0,0,1,143.247,63.156Zm-1.778,0a5.92,5.92,0,0,0-.418-2.345,4.308,4.308,0,0,0-1.134-1.595,4.534,4.534,0,0,0-1.672-.911,6.977,6.977,0,0,0-2.044-.289c-.456,0-.853.013-1.188.043a8.037,8.037,0,0,0-.932.129V68.382a6.381,6.381,0,0,0,1.1.172q.587.042,1.21.043a4.943,4.943,0,0,0,3.8-1.372A5.782,5.782,0,0,0,141.469,63.156Z" transform="translate(-132.347 -56.516)" fill="#6d6f72" stroke="#6d6f72" stroke-miterlimit="10" stroke-width="0.249"/>
      <path id="Path_94" data-name="Path 94" d="M141.7,69.467a.923.923,0,0,1-.258-.686V57.645a.884.884,0,0,1,.942-.942H149.5a1.842,1.842,0,0,1,.129.289,1.186,1.186,0,0,1,.064.395.9.9,0,0,1-.174.58.588.588,0,0,1-.491.213h-5.847v4.133h5.653a1.664,1.664,0,0,1,.129.291,1.165,1.165,0,0,1,.064.395.859.859,0,0,1-.172.568.606.606,0,0,1-.492.2h-5.182v4.5H149.6a1.9,1.9,0,0,1,.129.279,1.194,1.194,0,0,1,.063.407.861.861,0,0,1-.17.568.609.609,0,0,1-.492.2h-6.747A.92.92,0,0,1,141.7,69.467Z" transform="translate(-126.411 -56.424)" fill="#6d6f72" stroke="#6d6f72" stroke-miterlimit="10" stroke-width="0.249"/>
      <path id="Path_95" data-name="Path 95" d="M152.816,68.657A3.192,3.192,0,0,0,154.989,68a2.141,2.141,0,0,0,.74-1.682,1.947,1.947,0,0,0-.568-1.456,4.3,4.3,0,0,0-1.788-.922l-1.864-.555a4.912,4.912,0,0,1-2.152-1.2,2.911,2.911,0,0,1-.782-2.142,3.387,3.387,0,0,1,.309-1.466,3.022,3.022,0,0,1,.891-1.1,4.293,4.293,0,0,1,1.382-.7,6.165,6.165,0,0,1,1.808-.246,8.644,8.644,0,0,1,1.6.14,5.631,5.631,0,0,1,1.286.385,2.891,2.891,0,0,1,.846.547.856.856,0,0,1,.15,1.134,1.1,1.1,0,0,1-.387.342,5.42,5.42,0,0,0-1.444-.749,5.8,5.8,0,0,0-1.983-.321,3.246,3.246,0,0,0-1.98.535,1.764,1.764,0,0,0-.717,1.5,1.576,1.576,0,0,0,.512,1.22,4.323,4.323,0,0,0,1.714.815l1.307.387a6.677,6.677,0,0,1,2.667,1.38,3.183,3.183,0,0,1,.975,2.474,3.444,3.444,0,0,1-1.221,2.742,5.165,5.165,0,0,1-3.47,1.049,8.715,8.715,0,0,1-1.788-.17,5.944,5.944,0,0,1-1.37-.451,2.966,2.966,0,0,1-.879-.61.978.978,0,0,1-.311-.653.864.864,0,0,1,.226-.611,1.269,1.269,0,0,1,.524-.352,4.638,4.638,0,0,0,1.37.93,5.365,5.365,0,0,0,2.228.461Z" transform="translate(-121.827 -56.534)" fill="#6d6f72" stroke="#6d6f72" stroke-miterlimit="10" stroke-width="0.249"/>
      <path id="Path_96" data-name="Path 96" d="M157.776,69.821a2.016,2.016,0,0,1-.473.055c-.628,0-.942-.266-.942-.793V56.788a2.278,2.278,0,0,1,.331-.1,2.055,2.055,0,0,1,.483-.055q.92,0,.92.792V69.723A2.59,2.59,0,0,1,157.776,69.821Z" transform="translate(-116.676 -56.466)" fill="#6d6f72" stroke="#6d6f72" stroke-miterlimit="10" stroke-width="0.249"/>
      <path id="Path_97" data-name="Path 97" d="M170.989,68.335a.954.954,0,0,1-.225.645,2.388,2.388,0,0,1-.674.492,6.667,6.667,0,0,1-1.479.448,9.453,9.453,0,0,1-1.907.193,8.771,8.771,0,0,1-2.74-.407,5.716,5.716,0,0,1-2.142-1.243,5.565,5.565,0,0,1-1.393-2.109,8.369,8.369,0,0,1-.491-3.011,8.039,8.039,0,0,1,.512-3,5.929,5.929,0,0,1,1.4-2.132,5.765,5.765,0,0,1,2.067-1.264,7.457,7.457,0,0,1,2.505-.418,8.534,8.534,0,0,1,1.661.15,5.855,5.855,0,0,1,1.294.4,2.929,2.929,0,0,1,.836.545.872.872,0,0,1,.3.6.789.789,0,0,1-.174.514,1.1,1.1,0,0,1-.4.322,8.184,8.184,0,0,0-1.37-.717,5.328,5.328,0,0,0-2.036-.332,5.214,5.214,0,0,0-1.907.342,4.24,4.24,0,0,0-1.52,1.006,4.636,4.636,0,0,0-1.006,1.671,7.665,7.665,0,0,0,.012,4.7,4.326,4.326,0,0,0,1.049,1.638,4.25,4.25,0,0,0,1.585.954,6.112,6.112,0,0,0,1.981.311,7.888,7.888,0,0,0,1.456-.129,4.186,4.186,0,0,0,1.071-.321V64.245h-3.234a1.536,1.536,0,0,1-.127-.289,1.139,1.139,0,0,1-.064-.395.858.858,0,0,1,.17-.568.608.608,0,0,1,.492-.2h3.576a.937.937,0,0,1,.653.246.853.853,0,0,1,.269.654Z" transform="translate(-114.342 -56.534)" fill="#6d6f72" stroke="#6d6f72" stroke-miterlimit="10" stroke-width="0.249"/>
      <path id="Path_98" data-name="Path 98" d="M170.261,69.884c-.628,0-.94-.258-.94-.773V57.01a1.571,1.571,0,0,1,1.157-.385,1.787,1.787,0,0,1,.876.2,1.843,1.843,0,0,1,.664.739l4.092,6.855q.255.449.534.952c.187.335.365.673.535,1.006s.334.651.483.944.276.539.375.739l.086-.021q-.171-1.735-.2-3.492c-.023-1.17-.031-2.312-.031-3.426V56.8c.084-.03.2-.061.342-.1a1.9,1.9,0,0,1,.469-.055c.63,0,.944.256.944.772V69.54a1.338,1.338,0,0,1-.492.268,2.158,2.158,0,0,1-.664.1,1.749,1.749,0,0,1-.878-.2,1.842,1.842,0,0,1-.664-.739l-4.069-6.853q-.258-.429-.547-.942c-.193-.342-.378-.679-.557-1.006s-.342-.643-.492-.944-.274-.549-.375-.749l-.084.021c.071.686.127,1.466.17,2.345s.064,1.709.064,2.5v6.4a2.427,2.427,0,0,1-.332.1A2.034,2.034,0,0,1,170.261,69.884Z" transform="translate(-108.219 -56.475)" fill="#6d6f72" stroke="#6d6f72" stroke-miterlimit="10" stroke-width="0.249"/>
      <path id="Path_99" data-name="Path 99" d="M182.414,68.657A3.194,3.194,0,0,0,184.589,68a2.145,2.145,0,0,0,.739-1.682,1.952,1.952,0,0,0-.567-1.456,4.294,4.294,0,0,0-1.79-.922l-1.862-.555a4.928,4.928,0,0,1-2.153-1.2,2.918,2.918,0,0,1-.782-2.142,3.364,3.364,0,0,1,.311-1.466,3.035,3.035,0,0,1,.889-1.1,4.285,4.285,0,0,1,1.383-.7,6.165,6.165,0,0,1,1.808-.246,8.657,8.657,0,0,1,1.6.14,5.643,5.643,0,0,1,1.284.385,2.9,2.9,0,0,1,.848.547.853.853,0,0,1,.149,1.134,1.074,1.074,0,0,1-.387.342,5.4,5.4,0,0,0-1.444-.749,5.782,5.782,0,0,0-1.981-.321,3.251,3.251,0,0,0-1.981.535,1.764,1.764,0,0,0-.717,1.5,1.572,1.572,0,0,0,.514,1.22,4.312,4.312,0,0,0,1.714.815l1.306.387a6.666,6.666,0,0,1,2.667,1.38,3.183,3.183,0,0,1,.975,2.474,3.439,3.439,0,0,1-1.221,2.742,5.159,5.159,0,0,1-3.47,1.049,8.7,8.7,0,0,1-1.786-.17,5.933,5.933,0,0,1-1.372-.451,2.935,2.935,0,0,1-.878-.61.97.97,0,0,1-.311-.653.871.871,0,0,1,.225-.611,1.291,1.291,0,0,1,.524-.352,4.816,4.816,0,0,0,.578.481,4.6,4.6,0,0,0,.793.45,5.349,5.349,0,0,0,2.226.461Z" transform="translate(-102.511 -56.534)" fill="#6d6f72" stroke="#6d6f72" stroke-miterlimit="10" stroke-width="0.249"/>
    </g>
  </g>
</svg>
